<?xml version="1.0" standalone="no"?>
<!DOCTYPE svg PUBLIC "-//W3C//DTD SVG 20010904//EN"
 "http://www.w3.org/TR/2001/REC-SVG-20010904/DTD/svg10.dtd">
<svg version="1.0" xmlns="http://www.w3.org/2000/svg"
 width="259.000000pt" height="259.000000pt" viewBox="0 0 259.000000 259.000000"
 preserveAspectRatio="xMidYMid meet">

<g transform="translate(0.000000,259.000000) scale(0.100000,-0.100000)"
fill="#000000" stroke="none">
<path d="M481 2083 c-128 -432 -461 -1576 -461 -1584 0 -6 40 -9 102 -7 l102
3 238 825 c130 454 237 826 238 828 0 1 -45 2 -100 2 l-99 0 -20 -67z"/>
<path d="M807 1903 c-68 -137 -159 -320 -201 -409 l-78 -161 208 -422 207
-421 109 0 c59 0 108 3 108 8 0 4 -92 194 -206 423 l-205 417 142 283 c78 156
168 339 200 407 l58 122 -110 0 -109 0 -123 -247z"/>
<path d="M2104 1798 c95 -194 185 -378 200 -408 l27 -55 -205 -417 c-113 -229
-206 -420 -206 -423 0 -3 48 -5 108 -5 l107 0 210 420 209 420 -32 67 c-18 38
-108 222 -200 410 l-167 342 -112 1 -112 0 173 -352z"/>
<path d="M1169 1913 c-7 -24 -10 -66 -6 -120 6 -77 4 -86 -18 -120 -38 -55
-49 -107 -49 -243 -1 -115 1 -130 25 -181 46 -97 108 -146 243 -189 55 -18 66
-25 60 -39 -4 -9 -11 -34 -17 -56 -14 -59 -20 -68 -53 -77 -77 -22 -164 19
-229 109 -44 60 -78 83 -125 83 -16 0 -30 -2 -30 -3 0 -2 17 -22 38 -43 20
-22 52 -69 71 -104 65 -124 123 -165 239 -164 l72 0 0 -52 c0 -40 4 -53 18
-59 35 -14 216 -16 272 -3 l55 14 0 149 c0 125 -4 156 -19 184 -10 18 -14 37
-9 41 4 4 38 15 75 24 83 22 168 81 203 140 46 78 68 163 62 241 -7 102 -29
187 -61 235 -26 40 -27 44 -16 92 12 50 9 104 -10 153 l-10 27 -38 -22 c-20
-12 -58 -44 -83 -71 l-46 -49 -39 17 c-56 26 -302 26 -358 0 l-38 -17 -41 46
c-34 38 -105 94 -121 94 -2 0 -10 -17 -17 -37z"/>
</g>
</svg>
